<mxfile host="app.diagrams.net" modified="2024-03-27T09:25:09.120Z" agent="Mozilla/5.0 (Windows NT 10.0; Win64; x64) AppleWebKit/537.36 (KHTML, like Gecko) Chrome/123.0.0.0 Safari/537.36" version="24.2.0" etag="G2_hOAMZL2OW__gtPn92" type="github">
  <diagram name="第 1 页" id="O8LcyDFnGGGGe8PbeCCY">
    <mxGraphModel>
      <root>
        <mxCell id="0" />
        <mxCell id="1" parent="0" />
      </root>
    </mxGraphModel>
  </diagram>
</mxfile>
